<svg xmlns="http://www.w3.org/2000/svg" width="40" height="40" viewBox="0 0 40 40">
  <g fill-rule="evenodd" opacity=".7">
    <path fill="#40B6E0" d="M39,35 L24.574,9.543 L20.232,22.004 L28.926,30.762 L13.543,35 L39,35 Z M4,32 L12.77,16.227 L23.386,7 L12.104,32 L4,32 Z"/>
    <path fill="#B99BF8" d="M15,6 C15,4.896 14.104,4 13,4 C11.896,4 11,4.896 11,6 C11,6.762 11.431,7.416 12.057,7.754 L12.057,9 C12.057,10.135 11.134,11.058 10,11.058 L9,11.058 C8.244,11.058 7.543,11.282 6.943,11.652 L6.943,7.754 C7.569,7.416 8,6.762 8,6 C8,4.896 7.104,4 6,4 C4.896,4 4,4.896 4,6 C4,6.762 4.431,7.416 5.057,7.754 L5.057,15 L5.057,16.246 C4.431,16.584 4,17.238 4,18 C4,19.104 4.896,20 6,20 C7.104,20 8,19.104 8,18 C8,17.238 7.569,16.584 6.943,16.246 L6.943,15 C6.943,13.865 7.866,12.942 9,12.942 L10,12.942 C12.174,12.942 13.943,11.174 13.943,9 L13.943,7.754 C14.569,7.416 15,6.762 15,6"/>
  </g>
</svg>
